HIERARCHY
ROOT Hips
{
	OFFSET 23.497593 106.474762 21.262596
	CHANNELS 6 Xposition Yposition Zposition Xrotation Yrotation Zrotation
	JOINT Chest
	{
		OFFSET 0.580036 13.621132 0.531460
		CHANNELS 3 Xrotation Yrotation Zrotation
		JOINT Chest2
		{
			OFFSET -2.424541 20.719734 4.886827
			CHANNELS 3 Xrotation Yrotation Zrotation
			JOINT Chest3
			{
				OFFSET -1.881546 14.726471 1.552645
				CHANNELS 3 Xrotation Yrotation Zrotation
				JOINT Neck
				{
					OFFSET -1.286528 16.995468 2.848719
					CHANNELS 3 Xrotation Yrotation Zrotation
					JOINT Head
					{
						OFFSET -2.452715 9.371277 3.998899
						CHANNELS 3 Xrotation Yrotation Zrotation
						End Site
						{
							OFFSET -2.461088 9.397644 3.931290
						}
					}
				}
				JOINT LeftCollar
				{
					OFFSET 3.900276 13.165176 3.642878
					CHANNELS 3 Xrotation Yrotation Zrotation
					JOINT LeftUpArm
					{
						OFFSET 11.508392 4.641510 -12.430315
						CHANNELS 3 Xrotation Yrotation Zrotation
						JOINT LeftLowArm
						{
							OFFSET 30.675648 0.582581 -14.085207
							CHANNELS 3 Xrotation Yrotation Zrotation
							JOINT LeftHand
							{
								OFFSET 9.183357 -20.593231 19.812431
								CHANNELS 3 Xrotation Yrotation Zrotation
								End Site
								{
									OFFSET 2.007095 -4.500763 4.330112
								}
							}
						}
					}
				}
				JOINT RightCollar
				{
					OFFSET -4.068437 12.141678 6.151100
					CHANNELS 3 Xrotation Yrotation Zrotation
					JOINT RightUpArm
					{
						OFFSET -17.383726 -2.114166 -1.353813
						CHANNELS 3 Xrotation Yrotation Zrotation
						JOINT RightLowArm
						{
							OFFSET -27.448490 -15.287903 12.352943
							CHANNELS 3 Xrotation Yrotation Zrotation
							JOINT RightHand
							{
								OFFSET 14.298917 -9.177490 24.744087
								CHANNELS 3 Xrotation Yrotation Zrotation
								End Site
								{
									OFFSET 3.125172 -2.005844 5.408058
								}
							}
						}
					}
				}
			}
		}
	}
	JOINT LeftUpLeg
	{
		OFFSET 9.777130 -0.331818 -2.171806
		CHANNELS 3 Xrotation Yrotation Zrotation
		JOINT LeftLowLeg
		{
			OFFSET -2.538305 -47.302231 -0.213335
			CHANNELS 3 Xrotation Yrotation Zrotation
			JOINT LeftFoot
			{
				OFFSET -5.695713 -42.619003 -12.318569
				CHANNELS 3 Xrotation Yrotation Zrotation
				JOINT LeftToe
				{
					OFFSET 1.715792 -19.607395 13.121193
					CHANNELS 3 Xrotation Yrotation Zrotation
					End Site
					{
						OFFSET 6.331409 -6.981546 21.696318
					}
				}
			}
		}
	}
	JOINT RightUpLeg
	{
		OFFSET -9.777143 0.331619 2.171801
		CHANNELS 3 Xrotation Yrotation Zrotation
		JOINT RightLowLeg
		{
			OFFSET -8.868001 -42.333626 19.319288
			CHANNELS 3 Xrotation Yrotation Zrotation
			JOINT RightFoot
			{
				OFFSET -10.327073 -40.017891 -17.102621
				CHANNELS 3 Xrotation Yrotation Zrotation
				JOINT RightToe
				{
					OFFSET -4.248121 -21.662176 8.500608
					CHANNELS 3 Xrotation Yrotation Zrotation
					End Site
					{
						OFFSET -3.333981 -11.248210 20.540649
					}
				}
			}
		}
	}
}
MOTION
Frames: 8
Frame Time: 0.033333
25.472584 96.798965 97.145012 0.547587 32.967701 6.540512 -5.931562 0.481165 -0.957596 -1.802785 -11.240138 13.235101 -4.105751 -26.422242 -15.415776 -7.822677 -2.388579 0.469949 0.000002 0.000000 0.000002 3.495934 -22.560316 -10.157727 -40.674535 -39.856725 -53.987765 -6.130226 17.778868 18.770401 -0.000005 0.000003 0.000000 -2.862695 -11.237166 7.672153 -4.300030 -17.962265 -4.148484 7.930383 -64.848364 -18.708313 -0.000001 0.000001 0.000002 -3.153854 -1.495699 1.712949 5.218129 2.616897 -19.655126 -21.292958 15.065222 26.846707 0.000001 0.000002 0.000001 -12.005056 4.912286 26.835613 25.065473 -1.604307 7.338882 -2.117604 0.102825 0.523188 -0.000002 -0.000006 -0.000000 
26.019037 96.145218 97.345673 1.744834 33.356906 4.321494 -5.515236 0.094330 1.021294 -1.820632 -11.056824 13.129668 -4.044637 -25.822994 -15.315844 -8.541450 -2.668914 0.990796 0.000002 -0.000000 -0.000000 3.429245 -21.337226 -9.937628 -34.922648 -36.894831 -47.585535 -4.713732 17.137324 17.443542 0.000006 0.000000 0.000003 -1.922131 -10.957011 8.510122 -2.489699 -17.873150 -2.358444 15.984985 -63.413204 -12.781092 0.000006 -0.000000 -0.000001 -4.890582 -1.455003 2.704156 5.645137 2.733551 -20.053511 -21.237558 14.855146 26.877916 0.000001 -0.000006 -0.000000 -10.011724 5.156572 27.867317 22.931325 -1.869461 6.990393 -4.331621 2.097580 1.781706 -0.000003 0.000002 0.000001 
26.517626 95.610352 97.549797 2.607472 35.812140 3.959053 -3.644011 -0.091423 2.140796 -1.271519 -10.488203 12.423319 -4.346571 -24.073874 -14.160519 -10.082033 -3.907664 1.614668 0.000002 -0.000000 0.000001 2.648665 -20.101691 -10.113479 -30.096614 -33.349341 -40.814291 -3.650968 17.712825 14.386918 0.000004 0.000002 -0.000001 -1.688332 -10.390208 9.312759 -2.153632 -19.094646 -0.880929 27.619410 -59.778075 -2.327670 0.000001 0.000002 -0.000002 -7.567705 -1.247394 1.823424 7.266410 2.169925 -21.052045 -20.852055 14.392573 25.804118 0.000004 0.000004 0.000001 -10.243316 4.803015 26.895021 21.667097 -2.025262 6.031744 -6.698535 3.059634 2.321857 -0.000004 -0.000003 -0.000001 
26.985510 95.135048 97.739075 1.912785 39.140355 3.967382 -2.471801 -0.268099 3.265918 -1.718166 -10.384471 12.232982 -4.433410 -23.688023 -14.433455 -10.417801 -4.147693 1.666812 0.000001 0.000001 0.000002 1.835557 -19.058425 -10.696255 -26.002701 -31.256711 -35.515877 -0.898609 21.486332 10.939443 0.000001 -0.000001 -0.000003 -1.157050 -9.636544 10.258379 -1.771501 -18.651138 -0.297781 33.460974 -54.388120 3.192872 -0.000001 -0.000001 -0.000003 -8.888878 -1.352313 1.439618 8.263000 1.981794 -22.505362 -20.334576 14.271279 25.220079 0.000002 0.000001 -0.000000 -9.030883 4.948991 26.365213 19.590186 -2.042381 5.628031 -8.908311 4.608073 3.650302 -0.000002 0.000000 0.000002 
27.461933 94.706207 97.895622 -0.453582 45.361199 4.293607 -3.106123 -0.491215 4.011390 -2.817977 -10.025112 11.933888 -3.376198 -24.012462 -14.634035 -9.541665 -1.665247 0.665590 0.000001 -0.000001 0.000001 1.681791 -16.982219 -11.633940 -20.720069 -30.560619 -30.976950 4.562785 26.268643 7.366147 0.000003 0.000001 0.000001 0.834692 -8.902417 11.752440 0.910167 -18.274936 -0.535438 34.404657 -46.531658 3.600124 0.000003 0.000009 -0.000001 -8.943960 -1.621403 1.252332 9.841631 1.423496 -24.230511 -20.534259 12.292839 23.575101 0.000003 0.000001 0.000000 -6.556777 5.383194 25.958308 15.319616 -1.914735 6.582929 -10.856283 5.333331 3.947255 -0.000002 0.000001 0.000004 
27.911674 94.367554 98.036385 -3.076053 54.685981 5.637747 -4.794651 -0.865117 4.727968 -2.560185 -9.324417 11.425498 -4.353731 -24.465753 -15.201138 -8.055074 1.688091 -0.253700 0.000000 0.000002 0.000000 3.141446 -15.504789 -11.724199 -16.118872 -29.334928 -27.864935 8.239422 27.917488 6.893508 0.000001 -0.000001 0.000003 2.845247 -9.954273 12.403885 4.859800 -19.034871 0.188934 32.009914 -38.747871 1.843492 0.000006 0.000005 -0.000003 -7.988667 -1.267809 -0.268602 10.273595 0.087792 -25.472391 -17.601660 10.912916 19.988822 0.000002 0.000003 -0.000001 -5.032153 5.594137 26.478741 9.639956 -1.298239 6.544830 -9.581870 3.334976 1.850937 -0.000002 -0.000001 0.000002 
28.335859 94.132172 98.120438 -6.840348 64.546094 8.395909 -6.594240 -1.158442 5.341493 -1.560656 -9.446767 11.807665 -6.238725 -25.051039 -16.862692 -7.616617 5.087210 -1.602246 0.000002 0.000002 -0.000001 4.585261 -15.272317 -10.847980 -15.181137 -30.110629 -28.681576 9.808997 28.494298 8.057875 -0.000001 0.000002 -0.000001 3.671203 -12.066880 12.248830 8.663032 -20.906275 2.620168 29.354319 -33.608854 -0.281322 0.000004 0.000002 -0.000003 -6.271818 -0.952273 -1.158067 11.411806 -1.035244 -24.727358 -15.002710 9.654752 16.885752 -0.000000 0.000001 -0.000000 -5.408610 5.462332 25.915814 5.989803 -0.804776 7.406719 -8.013878 1.124053 -0.198538 -0.000005 0.000000 0.000001 
28.664330 93.982132 98.197105 -23.140807 76.686174 24.356820 -6.683188 -1.204540 5.165254 2.255310 -9.568965 12.248600 -10.018609 -24.903619 -19.136839 -10.095143 8.482202 -3.143150 0.000002 -0.000002 -0.000001 5.699755 -15.728713 -10.746510 -14.823227 -29.396434 -30.139852 10.150172 28.661120 12.159754 0.000003 -0.000001 0.000003 3.795274 -14.278889 10.393931 12.379036 -20.296506 6.774746 24.074532 -32.579159 -5.928734 0.000006 0.000000 -0.000003 -1.721665 -0.408277 -0.770463 13.361443 -1.819319 -22.687966 -12.261305 10.943813 16.267718 0.000003 0.000000 -0.000001 -4.991744 4.713940 22.267837 2.761978 -0.590351 10.503771 -7.791485 -2.346711 -4.224447 -0.000000 0.000000 0.000000 
